<mxfile host="app.diagrams.net" modified="2022-08-22T16:39:29.062Z" agent="5.0 (Windows NT 10.0; Win64; x64) AppleWebKit/537.36 (KHTML, like Gecko) Chrome/104.0.0.0 Safari/537.36" etag="vOW7n7p-oxLpI25Ussgb" version="20.2.6" type="github">
  <diagram id="hIZEJI_8XoW6DWW8DLKc" name="Página-1">
    <mxGraphModel dx="1102" dy="582" grid="1" gridSize="10" guides="1" tooltips="1" connect="1" arrows="1" fold="1" page="1" pageScale="1" pageWidth="827" pageHeight="1169" math="0" shadow="0">
      <root>
        <mxCell id="0" />
        <mxCell id="1" parent="0" />
        <mxCell id="Xje1eANSap1ce5fZE2_R-3" value="" style="edgeStyle=orthogonalEdgeStyle;rounded=0;orthogonalLoop=1;jettySize=auto;html=1;" edge="1" parent="1" source="Xje1eANSap1ce5fZE2_R-1" target="Xje1eANSap1ce5fZE2_R-2">
          <mxGeometry relative="1" as="geometry" />
        </mxCell>
        <mxCell id="Xje1eANSap1ce5fZE2_R-1" value="INICIO" style="ellipse;whiteSpace=wrap;html=1;" vertex="1" parent="1">
          <mxGeometry x="354" y="39" width="120" height="80" as="geometry" />
        </mxCell>
        <mxCell id="Xje1eANSap1ce5fZE2_R-9" value="" style="edgeStyle=orthogonalEdgeStyle;rounded=0;orthogonalLoop=1;jettySize=auto;html=1;" edge="1" parent="1" source="Xje1eANSap1ce5fZE2_R-2" target="Xje1eANSap1ce5fZE2_R-8">
          <mxGeometry relative="1" as="geometry" />
        </mxCell>
        <mxCell id="Xje1eANSap1ce5fZE2_R-2" value="CADASTRAR DATA DO EVENTO" style="whiteSpace=wrap;html=1;" vertex="1" parent="1">
          <mxGeometry x="354" y="161" width="120" height="60" as="geometry" />
        </mxCell>
        <mxCell id="Xje1eANSap1ce5fZE2_R-11" value="SIM" style="edgeStyle=orthogonalEdgeStyle;rounded=0;orthogonalLoop=1;jettySize=auto;html=1;" edge="1" parent="1" source="Xje1eANSap1ce5fZE2_R-8" target="Xje1eANSap1ce5fZE2_R-10">
          <mxGeometry relative="1" as="geometry" />
        </mxCell>
        <mxCell id="Xje1eANSap1ce5fZE2_R-13" value="NÃO" style="edgeStyle=orthogonalEdgeStyle;rounded=0;orthogonalLoop=1;jettySize=auto;html=1;" edge="1" parent="1" source="Xje1eANSap1ce5fZE2_R-8" target="Xje1eANSap1ce5fZE2_R-12">
          <mxGeometry relative="1" as="geometry" />
        </mxCell>
        <mxCell id="Xje1eANSap1ce5fZE2_R-8" value="Data posterior a atual?" style="rhombus;whiteSpace=wrap;html=1;" vertex="1" parent="1">
          <mxGeometry x="359" y="260" width="110" height="103" as="geometry" />
        </mxCell>
        <mxCell id="Xje1eANSap1ce5fZE2_R-17" value="" style="edgeStyle=orthogonalEdgeStyle;rounded=0;orthogonalLoop=1;jettySize=auto;html=1;" edge="1" parent="1" source="Xje1eANSap1ce5fZE2_R-10" target="Xje1eANSap1ce5fZE2_R-16">
          <mxGeometry relative="1" as="geometry" />
        </mxCell>
        <mxCell id="Xje1eANSap1ce5fZE2_R-10" value="INFORME A DATA" style="whiteSpace=wrap;html=1;" vertex="1" parent="1">
          <mxGeometry x="150" y="281.5" width="120" height="60" as="geometry" />
        </mxCell>
        <mxCell id="Xje1eANSap1ce5fZE2_R-15" value="" style="edgeStyle=orthogonalEdgeStyle;rounded=0;orthogonalLoop=1;jettySize=auto;html=1;entryX=1;entryY=0.5;entryDx=0;entryDy=0;" edge="1" parent="1" source="Xje1eANSap1ce5fZE2_R-12" target="Xje1eANSap1ce5fZE2_R-2">
          <mxGeometry relative="1" as="geometry">
            <mxPoint x="590" y="190" as="targetPoint" />
            <Array as="points">
              <mxPoint x="590" y="191" />
            </Array>
          </mxGeometry>
        </mxCell>
        <mxCell id="Xje1eANSap1ce5fZE2_R-12" value="DATA INVÁLIDA" style="whiteSpace=wrap;html=1;" vertex="1" parent="1">
          <mxGeometry x="530" y="281.5" width="120" height="60" as="geometry" />
        </mxCell>
        <mxCell id="Xje1eANSap1ce5fZE2_R-24" value="" style="edgeStyle=orthogonalEdgeStyle;rounded=0;orthogonalLoop=1;jettySize=auto;html=1;" edge="1" parent="1" source="Xje1eANSap1ce5fZE2_R-16" target="Xje1eANSap1ce5fZE2_R-23">
          <mxGeometry relative="1" as="geometry" />
        </mxCell>
        <mxCell id="Xje1eANSap1ce5fZE2_R-16" value="LIMITE DE PARTICIPANTES" style="whiteSpace=wrap;html=1;" vertex="1" parent="1">
          <mxGeometry x="150" y="400" width="120" height="60" as="geometry" />
        </mxCell>
        <mxCell id="Xje1eANSap1ce5fZE2_R-28" value="SIM" style="edgeStyle=orthogonalEdgeStyle;rounded=0;orthogonalLoop=1;jettySize=auto;html=1;" edge="1" parent="1" source="Xje1eANSap1ce5fZE2_R-23" target="Xje1eANSap1ce5fZE2_R-27">
          <mxGeometry relative="1" as="geometry" />
        </mxCell>
        <mxCell id="Xje1eANSap1ce5fZE2_R-40" value="" style="edgeStyle=orthogonalEdgeStyle;rounded=0;orthogonalLoop=1;jettySize=auto;html=1;" edge="1" parent="1" source="Xje1eANSap1ce5fZE2_R-23" target="Xje1eANSap1ce5fZE2_R-37">
          <mxGeometry relative="1" as="geometry" />
        </mxCell>
        <mxCell id="Xje1eANSap1ce5fZE2_R-23" value="&amp;nbsp; &amp;nbsp; &amp;nbsp; QUANTIDADE&amp;nbsp; &amp;nbsp; &amp;nbsp; &amp;nbsp; &amp;nbsp; &amp;nbsp;&amp;gt; 99?" style="rhombus;whiteSpace=wrap;html=1;" vertex="1" parent="1">
          <mxGeometry x="150" y="510" width="120" height="92.5" as="geometry" />
        </mxCell>
        <mxCell id="Xje1eANSap1ce5fZE2_R-34" value="" style="edgeStyle=orthogonalEdgeStyle;rounded=0;orthogonalLoop=1;jettySize=auto;html=1;" edge="1" parent="1" source="Xje1eANSap1ce5fZE2_R-25" target="Xje1eANSap1ce5fZE2_R-33">
          <mxGeometry relative="1" as="geometry" />
        </mxCell>
        <mxCell id="Xje1eANSap1ce5fZE2_R-25" value="INFORME DATA DE NASCIMENTO" style="whiteSpace=wrap;html=1;" vertex="1" parent="1">
          <mxGeometry x="529" y="526.25" width="120" height="60" as="geometry" />
        </mxCell>
        <mxCell id="Xje1eANSap1ce5fZE2_R-27" value="LIMITE DE CADASTRO EXCEDIDO" style="whiteSpace=wrap;html=1;" vertex="1" parent="1">
          <mxGeometry x="150" y="680" width="120" height="60" as="geometry" />
        </mxCell>
        <mxCell id="Xje1eANSap1ce5fZE2_R-47" value="NÃO" style="edgeStyle=orthogonalEdgeStyle;rounded=0;orthogonalLoop=1;jettySize=auto;html=1;" edge="1" parent="1" source="Xje1eANSap1ce5fZE2_R-33" target="Xje1eANSap1ce5fZE2_R-44">
          <mxGeometry relative="1" as="geometry" />
        </mxCell>
        <mxCell id="Xje1eANSap1ce5fZE2_R-51" value="SIM" style="edgeStyle=orthogonalEdgeStyle;rounded=0;orthogonalLoop=1;jettySize=auto;html=1;" edge="1" parent="1" source="Xje1eANSap1ce5fZE2_R-33" target="Xje1eANSap1ce5fZE2_R-50">
          <mxGeometry relative="1" as="geometry" />
        </mxCell>
        <mxCell id="Xje1eANSap1ce5fZE2_R-33" value="&amp;nbsp; &amp;nbsp; &amp;nbsp; &amp;nbsp; PARTICIPANTE&amp;nbsp; &amp;nbsp; &amp;nbsp; &amp;nbsp; &amp;gt; 18 ANOS?" style="rhombus;whiteSpace=wrap;html=1;align=center;" vertex="1" parent="1">
          <mxGeometry x="522.5" y="655" width="133.5" height="100" as="geometry" />
        </mxCell>
        <mxCell id="Xje1eANSap1ce5fZE2_R-41" value="" style="edgeStyle=orthogonalEdgeStyle;rounded=0;orthogonalLoop=1;jettySize=auto;html=1;" edge="1" parent="1" source="Xje1eANSap1ce5fZE2_R-37" target="Xje1eANSap1ce5fZE2_R-25">
          <mxGeometry relative="1" as="geometry" />
        </mxCell>
        <mxCell id="Xje1eANSap1ce5fZE2_R-37" value="CADASTRAR PARTICIPANTE" style="whiteSpace=wrap;html=1;" vertex="1" parent="1">
          <mxGeometry x="351" y="526.25" width="120" height="60" as="geometry" />
        </mxCell>
        <mxCell id="Xje1eANSap1ce5fZE2_R-49" value="" style="edgeStyle=orthogonalEdgeStyle;rounded=0;orthogonalLoop=1;jettySize=auto;html=1;entryX=1;entryY=0.379;entryDx=0;entryDy=0;entryPerimeter=0;" edge="1" parent="1" source="Xje1eANSap1ce5fZE2_R-44" target="Xje1eANSap1ce5fZE2_R-25">
          <mxGeometry relative="1" as="geometry">
            <mxPoint x="650" y="560" as="targetPoint" />
            <Array as="points">
              <mxPoint x="755" y="549" />
            </Array>
          </mxGeometry>
        </mxCell>
        <mxCell id="Xje1eANSap1ce5fZE2_R-44" value="CADASTRO NÃO PERMITIDO" style="whiteSpace=wrap;html=1;" vertex="1" parent="1">
          <mxGeometry x="695" y="675" width="120" height="60" as="geometry" />
        </mxCell>
        <mxCell id="Xje1eANSap1ce5fZE2_R-53" value="" style="edgeStyle=orthogonalEdgeStyle;rounded=0;orthogonalLoop=1;jettySize=auto;html=1;" edge="1" parent="1" source="Xje1eANSap1ce5fZE2_R-50" target="Xje1eANSap1ce5fZE2_R-52">
          <mxGeometry relative="1" as="geometry" />
        </mxCell>
        <mxCell id="Xje1eANSap1ce5fZE2_R-50" value="CADASTRAR" style="whiteSpace=wrap;html=1;" vertex="1" parent="1">
          <mxGeometry x="529.25" y="820" width="120" height="60" as="geometry" />
        </mxCell>
        <mxCell id="Xje1eANSap1ce5fZE2_R-55" value="" style="edgeStyle=orthogonalEdgeStyle;rounded=0;orthogonalLoop=1;jettySize=auto;html=1;" edge="1" parent="1" source="Xje1eANSap1ce5fZE2_R-52" target="Xje1eANSap1ce5fZE2_R-54">
          <mxGeometry relative="1" as="geometry" />
        </mxCell>
        <mxCell id="Xje1eANSap1ce5fZE2_R-52" value="&lt;span style=&quot;font-size: 10.5pt; line-height: 107%; font-family: Arial, sans-serif; color: rgb(13, 37, 50);&quot;&gt;LISTAR PARTICIPANTES / PALESTRANTES&amp;nbsp;&lt;/span&gt;" style="whiteSpace=wrap;html=1;" vertex="1" parent="1">
          <mxGeometry x="529.25" y="921" width="120" height="60" as="geometry" />
        </mxCell>
        <mxCell id="Xje1eANSap1ce5fZE2_R-54" value="FIM" style="ellipse;whiteSpace=wrap;html=1;" vertex="1" parent="1">
          <mxGeometry x="529.25" y="1018" width="120" height="60" as="geometry" />
        </mxCell>
      </root>
    </mxGraphModel>
  </diagram>
</mxfile>
